<svg width="15" height="15" viewBox="0 0 15 15" fill="none" xmlns="http://www.w3.org/2000/svg">
<path d="M1.5303 14.7014C1.26886 14.6881 1.03097 14.7312 0.796914 14.6737C0.777636 14.542 0.878209 14.4869 0.939633 14.4157C2.59359 12.497 4.24665 10.5776 5.90974 8.66684C6.06212 8.49177 6.05552 8.38484 5.92929 8.20296C4.26684 5.80756 2.6127 3.40645 0.957947 1.00576C0.891705 0.90966 0.805061 0.822999 0.782227 0.69603C0.856764 0.59622 0.966065 0.637337 1.05852 0.637092C2.2321 0.633989 3.40575 0.640913 4.57924 0.630106C4.81016 0.627979 4.94126 0.711447 5.06815 0.897411C6.11401 2.43011 7.1702 3.95581 8.22432 5.48291C8.27559 5.55719 8.3367 5.62473 8.38625 5.68668C8.50704 5.69541 8.54285 5.60913 8.5938 5.55025C9.94631 3.98749 11.2996 2.42538 12.6461 0.857464C12.7836 0.697308 12.9248 0.619093 13.1392 0.630833C13.4352 0.647051 13.7329 0.634902 14.0763 0.634902C13.902 0.961005 13.6785 1.16556 13.4856 1.38994C12.0908 3.01214 10.689 4.62835 9.28946 6.24644C8.98433 6.59922 8.98924 6.59581 9.25297 6.9775C10.9626 9.4517 12.67 11.9274 14.3771 14.4033C14.4276 14.4766 14.4964 14.5431 14.4976 14.6478C14.4283 14.7307 14.3303 14.6988 14.2452 14.699C13.0533 14.7015 11.8613 14.6975 10.6694 14.7044C10.4851 14.7055 10.3691 14.6489 10.2633 14.4945C9.15201 12.8737 8.03374 11.2576 6.91619 9.64112C6.8445 9.53743 6.79101 9.41719 6.63933 9.32543C6.36912 9.63548 6.09462 9.94803 5.82273 10.2628C4.58562 11.6952 3.34673 13.1261 2.11557 14.5636C1.95055 14.7562 1.74892 14.681 1.5303 14.7014ZM8.51958 10.2205C9.12233 11.0814 9.7233 11.9435 10.3288 12.8025C10.5547 13.123 10.7296 13.5365 11.0397 13.7252C11.3633 13.9221 11.8253 13.7747 12.2266 13.783C12.4009 13.7866 12.5838 13.8226 12.7728 13.7391C12.7107 13.6458 12.6623 13.5694 12.6104 13.4955C9.99122 9.76269 7.35881 6.03896 4.76692 2.28748C4.39956 1.75578 4.02818 1.49844 3.39047 1.59395C3.10978 1.636 2.81745 1.60103 2.46656 1.60103C4.50747 4.50735 6.50212 7.34779 8.51958 10.2205Z" fill="#36503F"/>
</svg>
