<svg width="15" height="15" viewBox="0 0 15 15" fill="none" xmlns="http://www.w3.org/2000/svg">
<path d="M12.4162 14.3819C12.0543 14.3819 11.7254 14.3819 11.3559 14.3819C11.3559 14.2645 11.3559 14.1596 11.3559 14.0548C11.3553 12.6086 11.362 11.1623 11.3488 9.71615C11.3456 9.36866 11.3081 9.0146 11.2308 8.67612C11.0752 7.99419 10.692 7.68761 10.0131 7.64112C9.25612 7.58929 8.66573 7.87047 8.4645 8.49197C8.31575 8.95137 8.24886 9.453 8.2384 9.9378C8.2091 11.2958 8.22796 12.6547 8.22782 14.0133C8.22781 14.1317 8.22782 14.2501 8.22782 14.3832C7.28523 14.3832 6.37462 14.3832 5.44037 14.3832C5.44037 11.4071 5.44037 8.42491 5.44037 5.43032C6.32274 5.43032 7.19855 5.43032 8.10578 5.43032C8.10578 5.81617 8.10578 6.19263 8.10578 6.66831C8.60595 5.88121 9.24582 5.43836 10.0634 5.27379C10.8564 5.11416 11.641 5.16997 12.395 5.47128C13.3605 5.85711 13.8013 6.65114 13.9938 7.60847C14.0753 8.01427 14.1302 8.43249 14.1335 8.84557C14.1483 10.6749 14.1399 12.5045 14.1399 14.3819C13.5825 14.3819 13.0158 14.3819 12.4162 14.3819Z" fill="#36503F"/>
<path d="M3.03669 5.41768C3.25416 5.41768 3.4386 5.41768 3.63922 5.41768C3.63922 8.41562 3.63922 11.3874 3.63922 14.3788C2.71775 14.3788 1.8015 14.3788 0.870285 14.3788C0.870285 11.4014 0.870285 8.42819 0.870285 5.41768C1.58399 5.41768 2.29383 5.41768 3.03669 5.41768Z" fill="#36503F"/>
<path d="M3.37433 3.72883C2.75572 4.23312 2.10889 4.31778 1.49689 3.98843C0.889101 3.66133 0.568824 3.02223 0.655634 2.30972C0.730436 1.69577 1.20114 1.16769 1.83054 0.991616C2.51172 0.801053 3.25391 1.09121 3.63167 1.69577C4.0368 2.34414 3.95014 3.07268 3.37433 3.72883Z" fill="#36503F"/>
</svg>
