<svg width="16" height="15" viewBox="0 0 16 15" fill="none" xmlns="http://www.w3.org/2000/svg">
<path d="M10.0833 0.450761C10.7965 0.476518 11.4843 0.393875 12.167 0.506141C13.85 0.782879 15.1262 2.27286 15.1283 3.97473C15.1314 6.45727 15.1318 8.93982 15.1282 11.4224C15.1258 13.0627 13.8003 14.5808 12.1651 14.833C11.9789 14.8617 11.7943 14.887 11.6052 14.8869C9.13101 14.8855 6.6568 14.8904 4.18261 14.8849C2.22761 14.8806 0.63533 13.2838 0.633531 11.3338C0.631277 8.88869 0.631188 6.44361 0.633766 3.99854C0.635826 2.0457 2.22757 0.455358 4.18472 0.451745C6.14151 0.448132 8.09831 0.45084 10.0833 0.450761ZM3.61246 13.3004C3.81133 13.3612 4.0134 13.3909 4.22278 13.3907C6.65002 13.3888 9.07726 13.3939 11.5045 13.3885C12.7264 13.3858 13.6215 12.4925 13.6244 11.2725C13.6301 8.86486 13.6297 6.45717 13.6242 4.04952C13.6214 2.84551 12.7228 1.95202 11.5195 1.95029C9.09229 1.94679 6.66505 1.94709 4.23782 1.95057C3.04949 1.95227 2.14052 2.84642 2.13758 4.02704C2.13156 6.45343 2.13343 8.87985 2.13795 11.3062C2.13968 12.2334 2.68302 12.9729 3.61246 13.3004Z" fill="#36503F"/>
<path d="M6.78978 4.20383C8.79516 3.62923 10.7523 4.68807 11.341 6.5127C12.0569 8.73159 10.6663 10.982 8.33975 11.265C5.95452 11.555 4.25547 9.74406 4.24786 7.74395C4.24138 6.04101 5.19322 4.71136 6.78978 4.20383ZM5.79722 8.13845C6.08728 9.39173 7.3174 10.086 8.55307 9.6938C9.74001 9.31709 10.3447 7.98948 9.85708 6.83091C9.43747 5.83397 8.33743 5.31884 7.27074 5.61977C6.20066 5.92166 5.59184 6.93379 5.79722 8.13845Z" fill="#36503F"/>
<path d="M10.7987 3.79677C11.0173 3.40658 11.3357 3.25116 11.6861 3.34515C12.0193 3.43454 12.2447 3.72493 12.2459 4.06649C12.2472 4.40798 12.0285 4.69582 11.6884 4.79C11.41 4.86708 11.1595 4.79401 10.9651 4.59302C10.7563 4.37719 10.679 4.11435 10.7987 3.79677Z" fill="#36503F"/>
</svg>
