<svg width="9" height="15" viewBox="0 0 9 15" fill="none" xmlns="http://www.w3.org/2000/svg">
<path d="M0.648645 6.67123C0.648852 6.44173 0.659938 6.23902 0.646364 6.03797C0.63106 5.81128 0.720788 5.72518 0.948635 5.72951C1.46475 5.73931 1.98161 5.7201 2.49728 5.73807C2.75834 5.74717 2.8445 5.63259 2.84548 5.40121C2.8479 4.83203 2.85035 4.26285 2.8546 3.69368C2.86829 1.85755 4.13603 0.597343 5.97537 0.590425C6.58343 0.588138 7.19093 0.59001 7.79775 0.645709C8.00327 0.664573 8.09326 0.738104 8.09017 0.950581C8.08163 1.53804 8.08009 2.12578 8.08919 2.71321C8.09266 2.93702 7.99231 2.99708 7.78746 2.99337C7.37276 2.98587 6.95765 2.98821 6.54294 2.99732C5.85923 3.01234 5.51179 3.35651 5.49501 4.04391C5.48358 4.51186 5.50121 4.98055 5.48802 5.44841C5.48188 5.66625 5.56133 5.73953 5.77559 5.73625C6.38394 5.72691 6.99252 5.73154 7.60102 5.73261C7.9914 5.73329 7.98651 5.73476 7.93675 6.11425C7.85463 6.74062 7.77237 7.3672 7.70684 7.99541C7.68216 8.23199 7.59459 8.335 7.34445 8.32798C6.84699 8.31402 6.34837 8.33716 5.85119 8.31895C5.57808 8.30894 5.48402 8.3875 5.48578 8.67317C5.49748 10.5644 5.49169 12.4556 5.49109 14.3469C5.49097 14.7361 5.49 14.7368 5.09472 14.737C4.43091 14.7373 3.76704 14.7318 3.10332 14.7395C2.90452 14.7418 2.83687 14.688 2.83816 14.473C2.84971 12.5451 2.8457 10.6172 2.85119 8.68926C2.85194 8.42763 2.76164 8.30738 2.47816 8.31735C1.98092 8.33485 1.48248 8.31553 0.984818 8.32537C0.742507 8.33016 0.633628 8.25404 0.644263 7.99299C0.661813 7.56223 0.648781 7.13023 0.648645 6.67123Z" fill="#36503F"/>
</svg>
