<svg width="14" height="11" viewBox="0 0 14 11" fill="none" xmlns="http://www.w3.org/2000/svg">
<path d="M1.54883 4.76016C1.18984 4.76016 0.898828 5.05117 0.898828 5.41016C0.898828 5.76914 1.18984 6.06016 1.54883 6.06016V5.41016V4.76016ZM13.5657 5.86978C13.8196 5.61593 13.8196 5.20438 13.5657 4.95054L9.42915 0.813962C9.17531 0.560122 8.76375 0.560122 8.50991 0.813962C8.25607 1.0678 8.25607 1.47936 8.50991 1.7332L12.1869 5.41016L8.50991 9.08711C8.25607 9.34095 8.25607 9.75251 8.50991 10.0064C8.76375 10.2602 9.17531 10.2602 9.42915 10.0064L13.5657 5.86978ZM1.54883 5.41016V6.06016L13.1061 6.06016V5.41016V4.76016L1.54883 4.76016V5.41016Z" fill="black"/>
</svg>
