<svg width="233" height="221" viewBox="0 0 233 221" fill="none" xmlns="http://www.w3.org/2000/svg">
<path d="M111.831 3.63525C113.327 -0.971299 119.844 -0.971298 121.341 3.63526L145.231 77.1597C145.9 79.2198 147.82 80.6146 149.986 80.6146H227.294C232.138 80.6146 234.152 86.8127 230.233 89.6597L167.69 135.1C165.937 136.374 165.204 138.63 165.873 140.69L189.763 214.215C191.259 218.822 185.987 222.652 182.069 219.805L119.525 174.365C117.772 173.091 115.399 173.091 113.647 174.365L51.1034 219.805C47.1848 222.652 41.9124 218.822 43.4092 214.215L67.2987 140.69C67.9681 138.63 67.2348 136.374 65.4824 135.1L2.93871 89.6597C-0.979856 86.8127 1.03402 80.6146 5.87764 80.6146H83.1858C85.352 80.6146 87.2717 79.2198 87.9411 77.1597L111.831 3.63525Z" fill="black"/>
</svg>
