<svg width="480" height="512" viewBox="0 0 480 512" fill="none" xmlns="http://www.w3.org/2000/svg">
<mask id="mask0_6048_569" style="mask-type:alpha" maskUnits="userSpaceOnUse" x="0" y="0" width="480" height="512">
<path opacity="0.1" d="M0 10.0235C0 4.5006 4.47715 0.0234375 10 0.0234375H470C475.523 0.0234375 480 4.50059 480 10.0234V511.367H0V10.0235Z" fill="#F8FA8D"/>
</mask>
<g mask="url(#mask0_6048_569)">
<line y1="-0.5" x2="669.29" y2="-0.5" transform="matrix(-0.645205 0.764009 -0.645205 -0.764009 48.9556 0.0234375)" stroke="white"/>
<line y1="-0.5" x2="669.29" y2="-0.5" transform="matrix(-0.645205 0.764009 -0.645205 -0.764009 64.5541 0.0234375)" stroke="white"/>
<line y1="-0.5" x2="669.29" y2="-0.5" transform="matrix(-0.645205 0.764009 -0.645205 -0.764009 80.1528 0.0234375)" stroke="white"/>
<line y1="-0.5" x2="669.29" y2="-0.5" transform="matrix(-0.645205 0.764009 -0.645205 -0.764009 95.7511 0.0234375)" stroke="white"/>
<line y1="-0.5" x2="669.29" y2="-0.5" transform="matrix(-0.645205 0.764009 -0.645205 -0.764009 111.35 0.0234375)" stroke="white"/>
<line y1="-0.5" x2="669.29" y2="-0.5" transform="matrix(-0.645205 0.764009 -0.645205 -0.764009 126.948 0.0234375)" stroke="white"/>
<line y1="-0.5" x2="669.29" y2="-0.5" transform="matrix(-0.645205 0.764009 -0.645205 -0.764009 142.547 0.0234375)" stroke="white"/>
<line y1="-0.5" x2="669.29" y2="-0.5" transform="matrix(-0.645205 0.764009 -0.645205 -0.764009 158.145 0.0234375)" stroke="white"/>
<line y1="-0.5" x2="669.29" y2="-0.5" transform="matrix(-0.645205 0.764009 -0.645205 -0.764009 173.744 0.0234375)" stroke="white"/>
<line y1="-0.5" x2="669.29" y2="-0.5" transform="matrix(-0.645205 0.764009 -0.645205 -0.764009 189.342 0.0234375)" stroke="white"/>
<line y1="-0.5" x2="669.29" y2="-0.5" transform="matrix(-0.645205 0.764009 -0.645205 -0.764009 204.941 0.0234375)" stroke="white"/>
<line y1="-0.5" x2="669.29" y2="-0.5" transform="matrix(-0.645205 0.764009 -0.645205 -0.764009 220.54 0.0234375)" stroke="white"/>
<line y1="-0.5" x2="669.29" y2="-0.5" transform="matrix(-0.645205 0.764009 -0.645205 -0.764009 236.138 0.0234375)" stroke="white"/>
<line y1="-0.5" x2="669.29" y2="-0.5" transform="matrix(-0.645205 0.764009 -0.645205 -0.764009 251.737 0.0234375)" stroke="white"/>
<line y1="-0.5" x2="669.29" y2="-0.5" transform="matrix(-0.645205 0.764009 -0.645205 -0.764009 267.335 0.0234375)" stroke="white"/>
<line y1="-0.5" x2="669.29" y2="-0.5" transform="matrix(-0.645205 0.764009 -0.645205 -0.764009 282.934 0.0234375)" stroke="white"/>
<line y1="-0.5" x2="669.29" y2="-0.5" transform="matrix(-0.645205 0.764009 -0.645205 -0.764009 298.532 0.0234375)" stroke="white"/>
<line y1="-0.5" x2="669.29" y2="-0.5" transform="matrix(-0.645205 0.764009 -0.645205 -0.764009 314.131 0.0234375)" stroke="white"/>
<line y1="-0.5" x2="669.29" y2="-0.5" transform="matrix(-0.645205 0.764009 -0.645205 -0.764009 329.729 0.0234375)" stroke="white"/>
<line y1="-0.5" x2="669.29" y2="-0.5" transform="matrix(-0.645205 0.764009 -0.645205 -0.764009 345.328 0.0234375)" stroke="white"/>
<line y1="-0.5" x2="669.29" y2="-0.5" transform="matrix(-0.645205 0.764009 -0.645205 -0.764009 360.926 0.0234375)" stroke="white"/>
<line y1="-0.5" x2="669.29" y2="-0.5" transform="matrix(-0.645205 0.764009 -0.645205 -0.764009 376.525 0.0234375)" stroke="white"/>
<line y1="-0.5" x2="669.29" y2="-0.5" transform="matrix(-0.645205 0.764009 -0.645205 -0.764009 392.123 0.0234375)" stroke="white"/>
<line y1="-0.5" x2="669.29" y2="-0.5" transform="matrix(-0.645205 0.764009 -0.645205 -0.764009 407.722 0.0234375)" stroke="white"/>
<line y1="-0.5" x2="669.29" y2="-0.5" transform="matrix(-0.645205 0.764009 -0.645205 -0.764009 423.32 0.0234375)" stroke="white"/>
<line y1="-0.5" x2="669.29" y2="-0.5" transform="matrix(-0.645205 0.764009 -0.645205 -0.764009 438.919 0.0234375)" stroke="white"/>
<line y1="-0.5" x2="669.29" y2="-0.5" transform="matrix(-0.645205 0.764009 -0.645205 -0.764009 454.518 0.0234375)" stroke="white"/>
<line y1="-0.5" x2="669.29" y2="-0.5" transform="matrix(-0.645205 0.764009 -0.645205 -0.764009 470.116 0.0234375)" stroke="white"/>
<line y1="-0.5" x2="669.29" y2="-0.5" transform="matrix(-0.645205 0.764009 -0.645205 -0.764009 485.715 0.0234375)" stroke="white"/>
<line y1="-0.5" x2="669.29" y2="-0.5" transform="matrix(-0.645205 0.764009 -0.645205 -0.764009 501.313 0.0234375)" stroke="white"/>
<line y1="-0.5" x2="669.29" y2="-0.5" transform="matrix(-0.645205 0.764009 -0.645205 -0.764009 516.912 0.0234375)" stroke="white"/>
<line y1="-0.5" x2="669.29" y2="-0.5" transform="matrix(-0.645205 0.764009 -0.645205 -0.764009 532.511 0.0234375)" stroke="white"/>
<line y1="-0.5" x2="669.29" y2="-0.5" transform="matrix(-0.645205 0.764009 -0.645205 -0.764009 548.109 0.0234375)" stroke="white"/>
<line y1="-0.5" x2="669.29" y2="-0.5" transform="matrix(-0.645205 0.764009 -0.645205 -0.764009 563.708 0.0234375)" stroke="white"/>
<line y1="-0.5" x2="669.29" y2="-0.5" transform="matrix(-0.645205 0.764009 -0.645205 -0.764009 579.306 0.0234375)" stroke="white"/>
<line y1="-0.5" x2="669.29" y2="-0.5" transform="matrix(-0.645205 0.764009 -0.645205 -0.764009 594.905 0.0234375)" stroke="white"/>
<line y1="-0.5" x2="669.29" y2="-0.5" transform="matrix(-0.645205 0.764009 -0.645205 -0.764009 610.504 0.0234375)" stroke="white"/>
<line y1="-0.5" x2="669.29" y2="-0.5" transform="matrix(-0.645205 0.764009 -0.645205 -0.764009 626.102 0.0234375)" stroke="white"/>
<line y1="-0.5" x2="669.29" y2="-0.5" transform="matrix(-0.645205 0.764009 -0.645205 -0.764009 641.701 0.0234375)" stroke="white"/>
<line y1="-0.5" x2="669.29" y2="-0.5" transform="matrix(-0.645205 0.764009 -0.645205 -0.764009 657.299 0.0234375)" stroke="white"/>
<line y1="-0.5" x2="669.29" y2="-0.5" transform="matrix(-0.645205 0.764009 -0.645205 -0.764009 672.898 0.0234375)" stroke="white"/>
<line y1="-0.5" x2="669.29" y2="-0.5" transform="matrix(-0.645205 0.764009 -0.645205 -0.764009 688.497 0.0234375)" stroke="white"/>
<line y1="-0.5" x2="669.29" y2="-0.5" transform="matrix(-0.645205 0.764009 -0.645205 -0.764009 704.095 0.0234375)" stroke="white"/>
<line y1="-0.5" x2="669.29" y2="-0.5" transform="matrix(-0.645205 0.764009 -0.645205 -0.764009 719.694 0.0234375)" stroke="white"/>
<line y1="-0.5" x2="669.29" y2="-0.5" transform="matrix(-0.645205 0.764009 -0.645205 -0.764009 735.292 0.0234375)" stroke="white"/>
<line y1="-0.5" x2="669.29" y2="-0.5" transform="matrix(-0.645205 0.764009 -0.645205 -0.764009 750.891 0.0234375)" stroke="white"/>
<line y1="-0.5" x2="669.29" y2="-0.5" transform="matrix(-0.645205 0.764009 -0.645205 -0.764009 766.49 0.0234375)" stroke="white"/>
<line y1="-0.5" x2="669.29" y2="-0.5" transform="matrix(-0.645205 0.764009 -0.645205 -0.764009 782.088 0.0234375)" stroke="white"/>
<line y1="-0.5" x2="669.29" y2="-0.5" transform="matrix(-0.645205 0.764009 -0.645205 -0.764009 797.687 0.0234375)" stroke="white"/>
<line y1="-0.5" x2="669.29" y2="-0.5" transform="matrix(-0.645205 0.764009 -0.645205 -0.764009 813.285 0.0234375)" stroke="white"/>
<line y1="-0.5" x2="669.29" y2="-0.5" transform="matrix(-0.645205 0.764009 -0.645205 -0.764009 828.884 0.0234375)" stroke="white"/>
<line y1="-0.5" x2="669.29" y2="-0.5" transform="matrix(-0.645205 0.764009 -0.645205 -0.764009 844.483 0.0234375)" stroke="white"/>
<line y1="-0.5" x2="669.29" y2="-0.5" transform="matrix(-0.645205 0.764009 -0.645205 -0.764009 860.081 0.0234375)" stroke="white"/>
<line y1="-0.5" x2="669.29" y2="-0.5" transform="matrix(-0.645205 0.764009 -0.645205 -0.764009 875.68 0.0234375)" stroke="white"/>
<line y1="-0.5" x2="669.29" y2="-0.5" transform="matrix(-0.645205 0.764009 -0.645205 -0.764009 891.279 0.0234375)" stroke="white"/>
<line y1="-0.5" x2="669.29" y2="-0.5" transform="matrix(-0.645205 0.764009 -0.645205 -0.764009 906.877 0.0234375)" stroke="white"/>
</g>
</svg>
