<svg width="14" height="10" viewBox="0 0 14 10" fill="none" xmlns="http://www.w3.org/2000/svg">
<path d="M0.944763 4.47695C0.585778 4.47695 0.294763 4.76797 0.294763 5.12695C0.294763 5.48594 0.585778 5.77695 0.944763 5.77695V5.12695V4.47695ZM12.9617 5.58657C13.2155 5.33273 13.2155 4.92117 12.9617 4.66733L8.82508 0.530759C8.57124 0.276918 8.15968 0.276918 7.90584 0.530759C7.652 0.7846 7.652 1.19616 7.90584 1.45L11.5828 5.12695L7.90584 8.80391C7.652 9.05775 7.652 9.46931 7.90584 9.72315C8.15968 9.97699 8.57124 9.97699 8.82508 9.72315L12.9617 5.58657ZM0.944763 5.12695V5.77695L12.502 5.77695V5.12695V4.47695L0.944763 4.47695V5.12695Z" fill="#F8FA8D"/>
</svg>
