<svg width="53" height="53" viewBox="0 0 53 53" fill="none" xmlns="http://www.w3.org/2000/svg">
<path d="M36.9914 7.87496L40.614 1.37125C40.9023 0.846622 41.5657 0.660183 42.0882 0.95285C42.6106 1.24335 42.7992 1.90239 42.5066 2.42702L38.884 8.93073C38.6867 9.28626 38.316 9.48788 37.9366 9.48788C37.7567 9.48788 37.5768 9.44235 37.4098 9.3513C36.8874 9.0608 36.6988 8.39959 36.9914 7.87496ZM51.9391 12.2715C51.6963 11.723 51.0589 11.478 50.5105 11.7143L44.0068 14.5781C43.4583 14.8187 43.209 15.4604 43.4496 16.0068C43.6295 16.4143 44.0263 16.655 44.4425 16.655C44.5878 16.655 44.7373 16.6246 44.8783 16.5639L51.382 13.7001C51.9304 13.4595 52.1797 12.8178 51.9391 12.2715ZM13.1445 8.92856C13.3418 9.2841 13.7125 9.48571 14.0919 9.48571C14.2718 9.48571 14.4518 9.44018 14.6187 9.34913C15.1411 9.05863 15.3298 8.39959 15.0371 7.87496L11.4167 1.37125C11.1262 0.846622 10.465 0.662351 9.94252 0.95285C9.42005 1.24335 9.23144 1.90239 9.52411 2.42702L13.1467 8.93073L13.1445 8.92856ZM8.02392 14.5781L1.52022 11.7143C0.976073 11.4802 0.334375 11.7208 0.0915695 12.2715C-0.149068 12.8178 0.100241 13.4595 0.64872 13.7001L7.15243 16.5639C7.29334 16.6246 7.44292 16.655 7.58817 16.655C8.00441 16.655 8.40114 16.4143 8.58107 16.0068C8.82171 15.4604 8.5724 14.8187 8.02392 14.5781ZM43.3586 26.8268C43.3586 32.4264 40.6292 37.7096 36.0571 40.9593C35.1986 41.5707 34.6869 42.5549 34.6869 43.5933V46.34C34.6869 49.9258 31.7689 52.8437 28.1832 52.8437H23.8474C20.1989 52.8437 17.3437 49.8585 17.3437 46.0452V43.5911C17.3437 42.5549 16.8256 41.5663 15.9563 40.9485C10.6319 37.1503 7.91336 30.7463 8.86073 24.2318C9.97287 16.5986 16.3552 10.4439 24.0425 9.59411C29.0439 9.03912 33.8566 10.5697 37.5811 13.9017C41.2514 17.1904 43.3586 21.8991 43.3586 26.8268ZM32.519 46.3379V44.17H19.5116V46.043C19.5116 48.6835 21.3739 50.6737 23.8474 50.6737H28.1832C30.5744 50.6737 32.519 48.7291 32.519 46.3379ZM41.1907 26.8268C41.1907 22.517 39.3479 18.3936 36.1351 15.5168C33.3147 12.9934 29.781 11.6514 26.037 11.6514C25.456 11.6514 24.8707 11.684 24.2788 11.749C17.5584 12.4904 11.976 17.8712 11.007 24.544C10.1766 30.2499 12.5548 35.8604 17.2137 39.1816C18.1979 39.884 18.8851 40.8878 19.2363 42.0021H24.9314V31.052C22.46 30.549 20.5956 28.3595 20.5956 25.7428C20.5956 25.1445 21.0812 24.6589 21.6795 24.6589C22.2779 24.6589 22.7635 25.1445 22.7635 25.7428C22.7635 27.5357 24.2225 28.9947 26.0153 28.9947C27.8082 28.9947 29.2672 27.5357 29.2672 25.7428C29.2672 25.1445 29.7528 24.6589 30.3511 24.6589C30.9495 24.6589 31.4351 25.1445 31.4351 25.7428C31.4351 28.3616 29.5707 30.549 27.0993 31.052V42.0021H32.7922C33.1412 40.8899 33.822 39.8884 34.7997 39.1925C38.8038 36.3482 41.1907 31.7262 41.1907 26.8268Z" fill="#36503F"/>
</svg>
