<svg width="59" height="53" viewBox="0 0 59 53" fill="none" xmlns="http://www.w3.org/2000/svg">
<path d="M18.0354 16.0352C17.5071 16.566 17.1999 17.3106 17.2023 18.0995C17.2023 18.8908 17.5169 19.6329 18.0797 20.1883L24.1693 25.6882C24.6731 26.1452 24.7124 26.9193 24.2577 27.4231C23.8031 27.9294 23.0241 27.9638 22.5228 27.5116L16.3938 21.9749C15.3199 20.9182 14.7498 19.5592 14.7449 18.1068C14.7399 16.6545 15.3027 15.2906 16.3299 14.2658L22.508 8.4981C23.0044 8.0361 23.7835 8.06067 24.2455 8.55708C24.7075 9.05349 24.6804 9.83251 24.1865 10.2945L18.0379 16.0303L18.0354 16.0352ZM34.8102 25.6906C34.3064 26.1477 34.2671 26.9218 34.7217 27.4256C35.1763 27.9318 35.9553 27.9662 36.4567 27.5141L42.6249 21.938C43.6571 20.9182 44.2297 19.5592 44.2346 18.1068C44.2395 16.6545 43.6767 15.2906 42.62 14.2363L36.4714 8.50056C35.975 8.03855 35.1984 8.06559 34.734 8.55954C34.272 9.05595 34.299 9.83497 34.7929 10.297L40.9121 16.0032C41.4724 16.5635 41.7796 17.3082 41.7771 18.0995C41.7771 18.8908 41.4625 19.6329 40.9391 20.1515L34.8102 25.6906ZM25.8035 35.2035H23.8547L21.756 33.1048C21.525 32.8738 21.2129 32.746 20.8861 32.746H7.37243V11.8575C7.37243 7.11454 11.2307 3.2563 15.9736 3.2563H43.0058C47.7488 3.2563 51.607 7.11454 51.607 11.8575V14.3149C51.607 14.9932 52.1575 15.5437 52.8357 15.5437C53.514 15.5437 54.0645 14.9932 54.0645 14.3149V11.8575C54.0645 5.76047 49.1028 0.798828 43.0058 0.798828H15.9736C9.8766 0.798828 4.91495 5.76047 4.91495 11.8575V32.8714C2.11343 33.4415 0 35.9235 0 38.8897C0 42.2786 2.75729 45.0334 6.14369 45.0334H20.8885C21.5668 45.0334 22.1173 44.4829 22.1173 43.8047C22.1173 43.1264 21.5668 42.5759 20.8885 42.5759H6.14369C4.11136 42.5759 2.45748 40.922 2.45748 38.8897C2.45748 36.8574 4.11136 35.2035 6.14369 35.2035H20.3799L22.4785 37.3022C22.7095 37.5332 23.0216 37.661 23.3485 37.661H25.806C26.4842 37.661 27.0347 37.1105 27.0347 36.4322C27.0347 35.754 26.4842 35.2035 25.806 35.2035H25.8035ZM58.9794 26.6023C58.9794 28.2439 58.3405 29.7848 57.1806 30.9471L38.2408 49.8869C36.641 51.4867 34.4219 52.4058 32.1585 52.4058H28.261C27.5827 52.4058 27.0322 51.8554 27.0322 51.1771V47.2795C27.0322 44.9793 27.9268 42.8217 29.5512 41.1973L48.4909 22.2575C50.8083 19.9377 54.8607 19.9377 57.1781 22.2575C58.338 23.4174 58.9794 24.9607 58.9794 26.6023ZM56.522 26.6023C56.522 25.6193 56.1386 24.6929 55.4431 23.9949C54.0522 22.604 51.6217 22.604 50.2308 23.9949L31.291 42.9347C30.1311 44.0946 29.4922 45.6379 29.4922 47.2795V49.9484H32.161C33.778 49.9484 35.3606 49.2922 36.5058 48.1495L55.4456 29.2097C56.141 28.5142 56.522 27.5878 56.522 26.6023Z" fill="#36503F"/>
</svg>
