<svg width="53" height="53" viewBox="0 0 53 53" fill="none" xmlns="http://www.w3.org/2000/svg">
<path d="M42.2736 0.814453H9.75536C4.37684 0.814453 -0.00012207 5.19141 -0.00012207 10.5699V43.0882C-0.00012207 48.4667 4.37684 52.8437 9.75536 52.8437H42.2736C47.6522 52.8437 52.0291 48.4667 52.0291 43.0882V10.5699C52.0291 5.19141 47.6522 0.814453 42.2736 0.814453ZM9.75536 2.98234H42.2736C46.0848 2.98234 49.2195 5.81793 49.7507 9.48599H2.27832C2.80946 5.81793 5.94422 2.98234 9.75536 2.98234ZM42.2736 50.6758H9.75536C5.57134 50.6758 2.16776 47.2722 2.16776 43.0882V11.6539H49.8612V43.0882C49.8612 47.2722 46.4576 50.6758 42.2736 50.6758ZM8.67142 19.2415C8.67142 18.6431 9.15702 18.1575 9.75536 18.1575H18.4269C19.0252 18.1575 19.5108 18.6431 19.5108 19.2415C19.5108 19.8398 19.0252 20.3254 18.4269 20.3254H9.75536C9.15702 20.3254 8.67142 19.8398 8.67142 19.2415ZM30.3503 30.0809C30.3503 30.6792 29.8647 31.1648 29.2663 31.1648H16.259C15.6607 31.1648 15.1751 30.6792 15.1751 30.0809C15.1751 29.4826 15.6607 28.997 16.259 28.997H29.2663C29.8647 28.997 30.3503 29.4826 30.3503 30.0809ZM30.3503 40.9203C30.3503 41.5187 29.8647 42.0043 29.2663 42.0043H9.75536C9.15702 42.0043 8.67142 41.5187 8.67142 40.9203C8.67142 40.322 9.15702 39.8364 9.75536 39.8364H29.2663C29.8647 39.8364 30.3503 40.322 30.3503 40.9203ZM41.1897 36.7385V23.5772C41.1897 20.5899 38.7595 18.1575 35.77 18.1575H32.3642C31.8786 16.2932 30.1963 14.9057 28.1824 14.9057C25.7912 14.9057 23.8466 16.8503 23.8466 19.2415C23.8466 21.6327 25.7912 23.5772 28.1824 23.5772C30.1963 23.5772 31.8786 22.1898 32.3642 20.3254H35.77C37.5628 20.3254 39.0218 21.7844 39.0218 23.5772V36.7385C37.1574 37.2241 35.77 38.9064 35.77 40.9203C35.77 43.3115 37.7146 45.2561 40.1057 45.2561C42.4969 45.2561 44.4415 43.3115 44.4415 40.9203C44.4415 38.9064 43.0541 37.2241 41.1897 36.7385ZM28.1824 21.4094C26.9857 21.4094 26.0145 20.436 26.0145 19.2415C26.0145 18.047 26.9857 17.0736 28.1824 17.0736C29.3791 17.0736 30.3503 18.047 30.3503 19.2415C30.3503 20.436 29.3791 21.4094 28.1824 21.4094ZM40.1057 43.0882C38.9091 43.0882 37.9379 42.117 37.9379 40.9203C37.9379 39.7237 38.9091 38.7524 40.1057 38.7524C41.3024 38.7524 42.2736 39.7237 42.2736 40.9203C42.2736 42.117 41.3024 43.0882 40.1057 43.0882Z" fill="#36503F"/>
</svg>
