<svg width="91" height="30" viewBox="0 0 91 30" fill="none" xmlns="http://www.w3.org/2000/svg">
<path d="M4.82422 29.5H0.15625L10.625 0.398438H15.7031L26.1523 29.5H21.5039L13.2617 5.69141H13.0273L4.82422 29.5ZM5.60547 18.1133H20.7031V21.7852H5.60547V18.1133ZM27.1203 29.5V7.66406H31.2023V11.1602H31.4367C31.8404 9.98828 32.5435 9.0638 33.5461 8.38672C34.5617 7.69661 35.7076 7.35156 36.9836 7.35156C37.244 7.35156 37.55 7.36458 37.9016 7.39062C38.2661 7.40365 38.5591 7.42318 38.7805 7.44922V11.5117C38.6112 11.4596 38.3052 11.4076 37.8625 11.3555C37.4328 11.3034 36.9966 11.2773 36.5539 11.2773C35.5513 11.2773 34.6529 11.4922 33.8586 11.9219C33.0773 12.3385 32.4589 12.918 32.0031 13.6602C31.5604 14.3893 31.3391 15.2357 31.3391 16.1992V29.5H27.1203ZM48.2445 29.9492C46.1091 29.9492 44.2602 29.487 42.6977 28.5625C41.1352 27.638 39.9307 26.3359 39.0844 24.6562C38.251 22.9635 37.8344 20.9909 37.8344 18.7383C37.8344 16.4987 38.2445 14.526 39.0648 12.8203C39.8982 11.1146 41.0635 9.78646 42.5609 8.83594C44.0714 7.8724 45.8422 7.39062 47.8734 7.39062C49.1104 7.39062 50.3083 7.59245 51.4672 7.99609C52.626 8.39974 53.6677 9.03776 54.5922 9.91016C55.5167 10.7826 56.2458 11.9154 56.7797 13.3086C57.3266 14.7018 57.6 16.3815 57.6 18.3477V19.8711H40.2367V16.6875H55.4125L53.4398 17.7422C53.4398 16.401 53.2315 15.2161 52.8148 14.1875C52.3982 13.1589 51.7732 12.3581 50.9398 11.7852C50.1195 11.1992 49.0974 10.9062 47.8734 10.9062C46.6495 10.9062 45.6013 11.1992 44.7289 11.7852C43.8695 12.3711 43.212 13.1458 42.7562 14.1094C42.3005 15.0729 42.0727 16.1276 42.0727 17.2734V19.4414C42.0727 20.9388 42.3331 22.2083 42.8539 23.25C43.3747 24.2917 44.0974 25.0859 45.0219 25.6328C45.9594 26.1797 47.0466 26.4531 48.2836 26.4531C49.0909 26.4531 49.8201 26.3359 50.4711 26.1016C51.1352 25.8672 51.7081 25.5156 52.1898 25.0469C52.6716 24.5781 53.0362 23.9987 53.2836 23.3086L57.307 24.0703C56.9815 25.2422 56.4086 26.2708 55.5883 27.1562C54.768 28.0417 53.7328 28.7318 52.4828 29.2266C51.2458 29.7083 49.8331 29.9492 48.2445 29.9492ZM69.525 7.66406V11.082H57.6109V7.66406H69.525ZM60.7945 2.46875H65.0328V23.0938C65.0328 24.0964 65.2411 24.832 65.6578 25.3008C66.0745 25.7565 66.7451 25.9844 67.6695 25.9844C67.8909 25.9844 68.1253 25.9714 68.3727 25.9453C68.6331 25.9193 68.8935 25.8802 69.1539 25.8281L69.9547 29.3438C69.525 29.487 69.0563 29.5977 68.5484 29.6758C68.0406 29.7539 67.5328 29.793 67.025 29.793C65.137 29.793 63.6266 29.2656 62.4938 28.2109C61.3609 27.1432 60.7945 25.724 60.7945 23.9531V2.46875ZM80.2977 29.9492C78.2534 29.9492 76.463 29.4805 74.9266 28.543C73.4031 27.6055 72.2182 26.2904 71.3719 24.5977C70.5385 22.9049 70.1219 20.9388 70.1219 18.6992C70.1219 16.4336 70.5385 14.4544 71.3719 12.7617C72.2182 11.056 73.4031 9.73438 74.9266 8.79688C76.463 7.85938 78.2534 7.39062 80.2977 7.39062C82.3549 7.39062 84.1453 7.85938 85.6687 8.79688C87.1922 9.73438 88.3771 11.056 89.2234 12.7617C90.0698 14.4544 90.493 16.4336 90.493 18.6992C90.493 20.9388 90.0698 22.9049 89.2234 24.5977C88.3771 26.2904 87.1922 27.6055 85.6687 28.543C84.1453 29.4805 82.3549 29.9492 80.2977 29.9492ZM80.2977 26.375C81.6388 26.375 82.7456 26.0234 83.618 25.3203C84.4904 24.6172 85.1349 23.6862 85.5516 22.5273C85.9812 21.3555 86.1961 20.0794 86.1961 18.6992C86.1961 17.293 85.9812 16.0039 85.5516 14.832C85.1349 13.6602 84.4904 12.7227 83.618 12.0195C82.7456 11.3164 81.6388 10.9648 80.2977 10.9648C78.9695 10.9648 77.8693 11.3164 76.9969 12.0195C76.1375 12.7227 75.493 13.6602 75.0633 14.832C74.6336 16.0039 74.4187 17.293 74.4187 18.6992C74.4187 20.0794 74.6336 21.3555 75.0633 22.5273C75.493 23.6862 76.1375 24.6172 76.9969 25.3203C77.8693 26.0234 78.9695 26.375 80.2977 26.375Z" fill="white"/>
</svg>
