<svg width="225" height="50" viewBox="0 0 225 50" fill="none" xmlns="http://www.w3.org/2000/svg">
<path d="M65.0637 40.2129V12.2129H67.9037L86.2237 36.4529L85.6637 37.1729C85.5837 36.7462 85.5171 36.1062 85.4637 35.2529C85.4371 34.3996 85.3971 33.4396 85.3437 32.3729C85.3171 31.2796 85.2904 30.1462 85.2638 28.9729C85.2371 27.7996 85.2104 26.6529 85.1837 25.5329C85.1837 24.4129 85.1837 23.3996 85.1837 22.4929V12.2129H88.3037V40.2129H85.3837L67.1437 16.2929L67.6237 15.4529C67.7037 16.5196 67.7704 17.5729 67.8237 18.6129C67.9037 19.6529 67.9571 20.6529 67.9837 21.6129C68.0371 22.5729 68.0771 23.4529 68.1037 24.2529C68.1304 25.0529 68.1437 25.7329 68.1437 26.2929C68.1704 26.8529 68.1837 27.2529 68.1837 27.4929V40.2129H65.0637ZM103.348 40.6129C101.268 40.6129 99.4148 40.1596 97.7881 39.2529C96.1881 38.3462 94.9348 37.0796 94.0281 35.4529C93.1215 33.8262 92.6681 31.9596 92.6681 29.8529C92.6681 28.2262 92.9215 26.7596 93.4281 25.4529C93.9348 24.1196 94.6415 22.9596 95.5481 21.9729C96.4815 20.9862 97.5881 20.2262 98.8681 19.6929C100.148 19.1329 101.535 18.8529 103.028 18.8529C104.441 18.8529 105.721 19.1062 106.868 19.6129C108.041 20.1196 109.041 20.8262 109.868 21.7329C110.721 22.6129 111.361 23.6662 111.788 24.8929C112.215 26.1196 112.401 27.4662 112.348 28.9329L112.308 30.3329H94.9081L94.4681 27.8129H110.028L109.308 28.4929V27.5329C109.255 26.5729 108.975 25.6529 108.468 24.7729C107.961 23.8662 107.241 23.1329 106.308 22.5729C105.401 22.0129 104.308 21.7329 103.028 21.7329C101.535 21.7329 100.241 22.0396 99.1481 22.6529C98.0548 23.2396 97.2148 24.1196 96.6281 25.2929C96.0415 26.4662 95.7481 27.9196 95.7481 29.6529C95.7481 31.3062 96.0681 32.7462 96.7081 33.9729C97.3481 35.1729 98.2548 36.1062 99.4281 36.7729C100.628 37.4396 102.068 37.7729 103.748 37.7729C104.735 37.7729 105.708 37.6129 106.668 37.2929C107.655 36.9462 108.735 36.2796 109.908 35.2929L111.468 37.4529C110.855 38.0662 110.121 38.6129 109.268 39.0929C108.415 39.5462 107.481 39.9196 106.468 40.2129C105.455 40.4796 104.415 40.6129 103.348 40.6129ZM129.492 40.2129L122.252 30.8929L121.892 30.4529L113.212 19.3329H117.012L124.132 28.4929L124.532 29.0129L133.252 40.2129H129.492ZM113.052 40.2129L121.572 29.2129L123.372 31.3729L116.652 40.2129H113.052ZM124.732 29.9729L123.012 27.8529L129.092 19.3329H132.732L124.732 29.9729ZM142.82 40.6129C141.22 40.6129 139.86 40.2929 138.74 39.6529C137.647 38.9862 136.807 38.0262 136.22 36.7729C135.66 35.5196 135.38 33.9596 135.38 32.0929V19.3329H138.42V31.4929C138.42 32.9062 138.607 34.0929 138.98 35.0529C139.38 35.9862 139.967 36.6929 140.74 37.1729C141.54 37.6529 142.513 37.8929 143.66 37.8929C144.54 37.8929 145.353 37.7462 146.1 37.4529C146.847 37.1329 147.5 36.7062 148.06 36.1729C148.62 35.6396 149.06 35.0129 149.38 34.2929C149.7 33.5729 149.86 32.8129 149.86 32.0129V19.3329H152.86V40.2129H149.9L149.78 35.8129L150.26 35.5729C149.94 36.5062 149.407 37.3596 148.66 38.1329C147.913 38.8796 147.02 39.4796 145.98 39.9329C144.967 40.3862 143.913 40.6129 142.82 40.6129ZM157.501 40.2129V19.3329H160.501L160.581 24.8929L160.261 24.1329C160.555 23.1996 161.021 22.3329 161.661 21.5329C162.328 20.7329 163.115 20.0929 164.021 19.6129C164.928 19.1329 165.928 18.8929 167.021 18.8929C167.475 18.8929 167.901 18.9329 168.301 19.0129C168.701 19.0662 169.035 19.1462 169.301 19.2529L168.461 22.6129C168.115 22.4529 167.755 22.3462 167.381 22.2929C167.035 22.2129 166.701 22.1729 166.381 22.1729C165.475 22.1729 164.661 22.3329 163.941 22.6529C163.221 22.9729 162.608 23.4262 162.101 24.0129C161.595 24.5729 161.208 25.2262 160.941 25.9729C160.675 26.7196 160.541 27.5196 160.541 28.3729V40.2129H157.501ZM178.485 40.6129C176.671 40.6129 175.031 40.1462 173.565 39.2129C172.098 38.2529 170.938 36.9596 170.085 35.3329C169.231 33.6796 168.805 31.8129 168.805 29.7329C168.805 27.6262 169.245 25.7596 170.125 24.1329C171.005 22.5062 172.178 21.2262 173.645 20.2929C175.138 19.3596 176.805 18.8929 178.645 18.8929C179.738 18.8929 180.751 19.0529 181.685 19.3729C182.618 19.6929 183.445 20.1462 184.165 20.7329C184.911 21.2929 185.525 21.9596 186.005 22.7329C186.511 23.4796 186.858 24.2929 187.045 25.1729L186.165 24.7329L186.285 19.3329H189.285V40.2129H186.245V35.0929L187.045 34.5729C186.858 35.3729 186.498 36.1462 185.965 36.8929C185.431 37.6129 184.778 38.2529 184.005 38.8129C183.258 39.3729 182.405 39.8129 181.445 40.1329C180.511 40.4529 179.525 40.6129 178.485 40.6129ZM179.165 37.7329C180.551 37.7329 181.791 37.3996 182.885 36.7329C183.978 36.0396 184.831 35.0929 185.445 33.8929C186.085 32.6662 186.405 31.2796 186.405 29.7329C186.405 28.1862 186.085 26.8129 185.445 25.6129C184.831 24.4129 183.978 23.4662 182.885 22.7729C181.791 22.0796 180.551 21.7329 179.165 21.7329C177.751 21.7329 176.498 22.0796 175.405 22.7729C174.338 23.4662 173.485 24.4129 172.845 25.6129C172.231 26.8129 171.925 28.1862 171.925 29.7329C171.925 31.2529 172.231 32.6262 172.845 33.8529C173.458 35.0529 174.311 35.9996 175.405 36.6929C176.498 37.3862 177.751 37.7329 179.165 37.7329ZM193.929 40.2129V10.6129H196.929V23.8929L196.329 24.4929C196.623 23.3996 197.169 22.4396 197.969 21.6129C198.769 20.7596 199.703 20.0929 200.769 19.6129C201.863 19.1329 202.969 18.8929 204.089 18.8929C205.689 18.8929 207.023 19.1996 208.089 19.8129C209.156 20.4262 209.943 21.3729 210.449 22.6529C210.983 23.9329 211.249 25.5596 211.249 27.5329V40.2129H208.209V27.6929C208.209 26.3062 208.023 25.1729 207.649 24.2929C207.303 23.3862 206.756 22.7196 206.009 22.2929C205.263 21.8662 204.329 21.6662 203.209 21.6929C202.329 21.6929 201.503 21.8529 200.729 22.1729C199.956 22.4662 199.289 22.8796 198.729 23.4129C198.169 23.9462 197.729 24.5596 197.409 25.2529C197.089 25.9462 196.929 26.6929 196.929 27.4929V40.2129H195.449C195.263 40.2129 195.049 40.2129 194.809 40.2129C194.569 40.2129 194.276 40.2129 193.929 40.2129Z" fill="#143D3D"/>
<path d="M219.5 0.349609C222.331 0.349609 224.65 2.74696 224.65 5.73438C224.65 8.72163 222.331 11.1182 219.5 11.1182C216.669 11.1182 214.35 8.72163 214.35 5.73438C214.35 2.74696 216.669 0.349609 219.5 0.349609Z" fill="#143D3D" stroke="#485A46" stroke-width="0.7"/>
<path d="M218.138 7.91211V3.71211H219.782C220.026 3.71211 220.246 3.77011 220.442 3.88611C220.642 3.99811 220.8 4.15211 220.916 4.34811C221.032 4.54411 221.09 4.76611 221.09 5.01411C221.09 5.24611 221.034 5.45611 220.922 5.64411C220.81 5.83211 220.658 5.98211 220.466 6.09411C220.274 6.20211 220.058 6.25611 219.818 6.25611H218.606V7.91211H218.138ZM220.7 7.91211L219.644 6.06411L220.094 5.90811L221.258 7.91211H220.7ZM218.606 5.80011H219.86C220.008 5.80011 220.138 5.76611 220.25 5.69811C220.362 5.63011 220.45 5.53811 220.514 5.42211C220.578 5.30211 220.61 5.16611 220.61 5.01411C220.61 4.85011 220.572 4.70411 220.496 4.57611C220.42 4.44811 220.314 4.34811 220.178 4.27611C220.046 4.20411 219.894 4.16811 219.722 4.16811H218.606V5.80011Z" fill="#143D3D"/>
<path d="M0 10C0 4.47715 4.47715 0 10 0H39C44.5228 0 49 4.47715 49 10V40C49 45.5228 44.5228 50 39 50H10C4.47715 50 0 45.5228 0 40V10Z" fill="#143D3D"/>
<path d="M14.4956 32.7246L22.5889 37.4519C23.0008 37.6943 23.5202 37.3973 23.5202 36.9194V30.7343C23.5202 30.3779 23.3305 30.0484 23.0222 29.8695L16.5267 26.0994C16.4101 26.0317 16.3925 25.8703 16.4919 25.7791L21.1186 21.5305C21.2466 21.413 21.4357 21.3915 21.5868 21.4773L34.506 28.8178C35.1726 29.1966 36 28.7151 36 27.9483V20.3659C36 20.0081 35.8088 19.6775 35.4987 19.4991L24.7077 13.2903C24.3959 13.1109 24.0117 13.1128 23.7016 13.2953L14.4926 18.7175C14.1874 18.8973 14 19.225 14 19.5793V31.8611C14 32.2166 14.1887 32.5453 14.4956 32.7246Z" fill="#EFF5F4"/>
</svg>
